:SAMPLES-PER-SECOND 30
:FULLY-SPECIFIED
:DEGREES
237
root  6.23575571 41.13533441 2.635777841 2.151977539 -64.30400085 3.106018066
lowerback  11.39589977 2.610179901 -3.442810059
upperback  3.874799967 2.983989954 0.2852729857
thorax  -2.52335 1.431750059 1.831920028
lowerneck  -6.045810223 11.43340015 2.288259983
upperneck  4.124010086 15.20370007 -2.178499937
head  2.712049961 7.536170006 -0.3975499868
lclavicle  0 -9.442270133e-015 7.951389973e-016
lhumerus  -1.199810028 -13.11359978 81.40859985
lradius  2.73988959e-031 -2.227520835e-031 140.8890076
lwrist  -7.062250077e-031 -1.765562519e-031 4.254129887
lhand  -1.496451383e-031 -27.76390076 20.11240005
lfingers  90 7.125020027 -90
lthumb  89.89689403 5.08795885 91.16245106
rclavicle  0 -9.442270133e-015 7.951389973e-016
rhumerus  8.908120155 27.77090073 -75.51940155
rradius  -2.573446612e-031 2.417895071e-031 136.7850037
rwrist  7.062250077e-031 -0 -7.069890022
rhand  -7.920061211e-032 -33.2840004 9.303460121
rfingers  -90 -7.125020027 -90
rthumb  -92.93752616 -24.25625642 -97.11982154
rfemur  -21.75709915 13.65499973 8.281949997
rtibia  -0 0 43.1393013
rfoot  -0 -16.22750092 -8.406020164
rtoes  5.373923086 19.29304026 -105.8922705
lfemur  -17.46820068 -1.24793005 -13.18410015
ltibia  -0 0 39.82220078
lfoot  -0 -14.80239964 14.56639957
ltoes  -4.250644065 -19.5611806 -102.515957
238
root  6.254777758 41.16311261 2.640844518 2.070983887 -65.05599976 2.981994629
lowerback  11.88539982 2.670039892 -3.428159952
upperback  3.953059912 3.041990042 0.3782239854
thorax  -2.716249943 1.458549976 1.894410014
lowerneck  -6.231229782 11.57359982 2.280440092
upperneck  4.014790058 15.39659977 -2.344830036
head  2.72781992 7.626100063 -0.4282790124
lclavicle  0 -9.442270133e-015 7.951389973e-016
lhumerus  -1.139919996 -12.88860035 81.54049683
lradius  2.754641133e-031 -2.209252423e-031 141.2700043
lwrist  -7.062250077e-031 -0 3.968359947
lhand  -1.496451383e-031 -27.76390076 20.11240005
lfingers  90 7.125020027 -90
lthumb  89.89689403 5.08795885 91.16245106
rclavicle  0 -9.442270133e-015 7.951389973e-016
rhumerus  9.06855011 27.90920067 -75.46920013
rradius  -2.577746523e-031 2.413310361e-031 136.8869934
rwrist  7.062250077e-031 -3.531125038e-031 -6.900249958
rhand  -7.920061211e-032 -33.2840004 9.303460121
rfingers  -90 -7.125020027 -90
rthumb  -92.93752616 -24.25625642 -97.11982154
rfemur  -21.77529907 13.62409973 8.00728035
rtibia  -0 0 42.86050034
rfoot  -9.142464373e-032 -15.07559967 -7.069489956
rtoes  5.373923086 19.29304026 -105.8922705
lfemur  -17.24939919 -0.8461840153 -12.77649975
ltibia  -0 0 40.11259842
lfoot  -0 -14.15970039 13.00479984
ltoes  -4.250644065 -19.5611806 -102.515957
239
root  6.282444451 41.19422192 2.638777785 1.79901123 -65.68800354 3.177978516
lowerback  12.15999985 2.611540079 -3.39741993
upperback  4.130660057 2.947999954 0.3107120097
thorax  -2.669699907 1.405099988 1.814509988
lowerneck  -6.44328022 11.7972002 2.347029924
upperneck  3.83494997 15.6868 -2.430579901
head  2.725899935 7.768340111 -0.4409730136
lclavicle  0 -9.442270133e-015 7.951389973e-016
lhumerus  -0.9062799811 -12.2638998 81.31189728
lradius  2.773166966e-031 -2.185952656e-031 141.753006
lwrist  -3.531125038e-031 -1.765562519e-031 4.793930054
lhand  -1.496451383e-031 -27.76390076 20.11240005
lfingers  90 7.125020027 -90
lthumb  89.89689403 5.08795885 91.16245106
rclavicle  0 -9.442270133e-015 7.951389973e-016
rhumerus  9.443149567 28.1432991 -75.61440277
rradius  -2.577241302e-031 2.413849894e-031 136.875
rwrist  1.412450015e-030 -0 -6.66286993
rhand  -7.920061211e-032 -33.2840004 9.303460121
rfingers  -90 -7.125020027 -90
rthumb  -92.93752616 -24.25625642 -97.11982154
rfemur  -21.94869995 13.4048996 7.535610199
rtibia  -0 0 42.70650101
rfoot  -4.539769992e-032 -13.52320004 -5.984210014
rtoes  5.373923086 19.29304026 -105.8922705
lfemur  -17.37829971 -0.3372609913 -12.42870045
ltibia  -0 0 40.63460159
lfoot  -0 -13.03279972 11.78050041
ltoes  -4.250644065 -19.5611806 -102.515957
240
root  6.317999982 41.22822078 2.631377798 2.034973145 -66.21199799 3.090026855
lowerback  12.24800014 2.560739994 -3.283269882
upperback  4.261209965 2.886149883 0.3031829894
thorax  -2.57198 1.369140029 1.75169003
lowerneck  -6.699299812 12.01049995 2.31843996
upperneck  3.644140005 15.9666996 -2.463850021
head  2.71442008 7.905439854 -0.4217120111
lclavicle  0 -9.442270133e-015 7.951389973e-016
lhumerus  -0.5897619724 -11.51780033 81.11889648
lradius  2.791457717e-031 -2.162546613e-031 142.2350006
lwrist  0 1.765562519e-031 6.348010063
lhand  -1.496451383e-031 -27.76390076 20.11240005
lfingers  90 7.125020027 -90
lthumb  89.89689403 5.08795885 91.16245106
rclavicle  0 -9.442270133e-015 7.951389973e-016
rhumerus  9.757379532 28.2404995 -75.66680145
rradius  -2.580693321e-031 2.41015892e-031 136.9570007
rwrist  7.062250077e-031 -1.765562519e-031 -6.659840107
rhand  -7.920061211e-032 -33.2840004 9.303460121
rfingers  -90 -7.125020027 -90
rthumb  -92.93752616 -24.25625642 -97.11982154
rfemur  -22.56200027 13.19550037 7.071450233
rtibia  -0 0 42.73839951
rfoot  -4.516111966e-032 -12.21280003 -4.640679836
rtoes  5.373923086 19.29304026 -105.8922705
lfemur  -18.01530075 0.1407019943 -11.85050011
ltibia  -0 0 41.41239929
lfoot  -0 -11.82590008 10.16139984
ltoes  -4.250644065 -19.5611806 -102.515957
241
root  6.349844444 41.28755584 2.627111044 2.788024902 -66.69300079 2.59197998
lowerback  12.28380013 2.567280054 -3.046390057
upperback  4.303510189 2.920830011 0.3534269929
thorax  -2.540740013 1.384909987 1.665609956
lowerneck  -6.915820122 12.12699986 2.271509886
upperneck  3.494570017 16.1182003 -2.460259914
head  2.701469898 7.979609966 -0.3967140019
lclavicle  0 -9.442270133e-015 7.951389973e-016
lhumerus  -0.3429220021 -11.25510025 81.04370117
lradius  2.804016551e-031 -2.146237456e-031 142.5690002
lwrist  -7.062250077e-031 -1.765562519e-031 7.077660084
lhand  -1.496451383e-031 -27.76390076 20.11240005
lfingers  90 7.125020027 -90
lthumb  89.89689403 5.08795885 91.16245106
rclavicle  0 -9.442270133e-015 7.951389973e-016
rhumerus  9.84414959 28.11129951 -75.70800018
rradius  -2.587161686e-031 2.403214191e-031 137.1109924
rwrist  0 -1.765562519e-031 -6.934259892
rhand  -7.920061211e-032 -33.2840004 9.303460121
rfingers  -90 -7.125020027 -90
rthumb  -92.93752616 -24.25625642 -97.11982154
rfemur  -23.37960052 12.92179966 6.749899864
rtibia  -0 0 42.88259888
rfoot  -6.750031321e-032 -11.22700024 -2.739089966
rtoes  5.373923086 19.29304026 -105.8922705
lfemur  -18.90889931 0.7486990094 -11.10050011
ltibia  -0 0 42.36109924
lfoot  -0 -10.3980999 7.862070084
ltoes  -4.250644065 -19.5611806 -102.515957
242
root  6.377377848 41.33244312 2.6250445 3.533996582 -67.13899994 2.130981445
lowerback  12.1093998 2.568200111 -2.782010078
upperback  4.437729836 2.95630002 0.3619619906
thorax  -2.295789957 1.397709966 1.531159997
lowerneck  -7.112110138 12.2105999 2.367749929
upperneck  3.264120102 16.21899986 -2.588119984
head  2.682399988 8.027219772 -0.4388499856
lclavicle  0 -9.442270133e-015 7.951389973e-016
lhumerus  -0.05246130005 -11.36289978 80.98280334
lradius  2.813093679e-031 -2.13432612e-031 142.8119965
lwrist  -7.062250077e-031 -0 6.954520226
lhand  -1.496451383e-031 -27.76390076 20.11240005
lfingers  90 7.125020027 -90
lthumb  89.89689403 5.08795885 91.16245106
rclavicle  0 -9.442270133e-015 7.951389973e-016
rhumerus  10.02690029 27.8798008 -75.72070313
rradius  -2.591561919e-031 2.39846844e-031 137.2160034
rwrist  7.062250077e-031 -1.765562519e-031 -7.16753006
rhand  -7.920061211e-032 -33.2840004 9.303460121
rfingers  -90 -7.125020027 -90
rthumb  -92.93752616 -24.25625642 -97.11982154
rfemur  -24.26269913 12.69379997 6.411220074
rtibia  -0 0 43.1697998
rfoot  -5.607742692e-032 -10.29950047 -0.814185977
rtoes  5.373923086 19.29304026 -105.8922705
lfemur  -19.94879913 1.66336 -10.51640034
ltibia  -0 0 43.47650146
lfoot  4.460972978e-032 -8.330329895 5.783130169
ltoes  -4.250644065 -19.5611806 -102.515957
